<svg width="27" height="27" viewBox="0 0 27 27" fill="none" xmlns="http://www.w3.org/2000/svg">
<path d="M24.679 13.4173C24.679 12.4704 24.6006 11.7794 24.4309 11.0629H13.3977V15.3367H19.874C19.7434 16.3988 19.0384 17.9983 17.4715 19.0731L17.4495 19.2161L20.938 21.8646L21.1797 21.8882C23.3994 19.8792 24.679 16.9234 24.679 13.4173" fill="#4285F4"/>
<path d="M13.3971 24.6779C16.5699 24.6779 19.2335 23.6542 21.179 21.8884L17.4708 19.0732C16.4785 19.7514 15.1467 20.2248 13.3971 20.2248C10.2895 20.2248 7.652 18.2159 6.7118 15.4391L6.57399 15.4506L2.94661 18.2018L2.89917 18.331C4.83159 22.093 8.80094 24.6779 13.3971 24.6779Z" fill="#34A853"/>
<path d="M6.71233 15.4392C6.46425 14.7226 6.32068 13.9548 6.32068 13.1615C6.32068 12.3681 6.46425 11.6004 6.69928 10.8838L6.69271 10.7312L3.01986 7.93585L2.89969 7.99187C2.10324 9.55299 1.64624 11.3061 1.64624 13.1615C1.64624 15.0169 2.10324 16.7699 2.89969 18.331L6.71233 15.4392" fill="#FBBC05"/>
<path d="M13.3971 6.09816C15.6037 6.09816 17.0922 7.03226 17.941 7.81286L21.2574 4.63945C19.2206 2.78405 16.5699 1.6452 13.3971 1.6452C8.80097 1.6452 4.8316 4.22996 2.89917 7.99194L6.69877 10.8839C7.65203 8.10715 10.2895 6.09816 13.3971 6.09816" fill="#EB4335"/>
</svg>
