<svg width="13" height="13" viewBox="0 0 13 13" fill="none" xmlns="http://www.w3.org/2000/svg">
<path d="M6.20796 12.4159C9.63653 12.4159 12.4159 9.63653 12.4159 6.20796C12.4159 2.7794 9.63653 0 6.20796 0C2.7794 0 0 2.7794 0 6.20796C0 9.63653 2.7794 12.4159 6.20796 12.4159Z" fill="#E6ECFF"/>
<path d="M11.1897 9.90765C10.6107 9.13251 9.8589 8.50309 8.99403 8.06942C8.12917 7.63575 7.17507 7.40979 6.20756 7.40949C5.24006 7.40918 4.28582 7.63455 3.42067 8.06767C2.55553 8.5008 1.80334 9.12975 1.22388 9.90453C1.8004 10.6832 2.55136 11.316 3.41655 11.7522C4.28174 12.1883 5.23709 12.4156 6.20599 12.4159C7.17489 12.4162 8.13038 12.1895 8.99585 11.7539C9.86131 11.3183 10.6127 10.686 11.1897 9.90765Z" fill="#4294FF"/>
<path d="M6.20777 6.60847C7.53496 6.60847 8.61085 5.53258 8.61085 4.20539C8.61085 2.8782 7.53496 1.80231 6.20777 1.80231C4.88058 1.80231 3.80469 2.8782 3.80469 4.20539C3.80469 5.53258 4.88058 6.60847 6.20777 6.60847Z" fill="#4294FF"/>
</svg>
