<svg width="24" height="21" viewBox="0 0 24 21" fill="none" xmlns="http://www.w3.org/2000/svg">
<path d="M17.0963 12.2127V12.2269L17.0915 12.2411C17.0678 12.388 16.9897 12.5231 16.8759 12.6202L16.8712 12.625C16.8475 12.6463 16.8309 12.6605 16.8238 12.6676C15.6153 13.8927 14.6817 15.3097 14.049 16.8831C13.5941 18.0181 13.3074 19.2147 13.196 20.454H0C0 17.6295 1.14449 15.0727 2.99511 13.2221C3.0425 13.1747 3.09226 13.1249 3.14202 13.0776C3.7818 12.4615 4.50214 11.9307 5.28409 11.4971H16.4707C16.6034 11.4971 16.7243 11.5374 16.8285 11.6084C16.9304 11.6795 17.011 11.7814 17.0584 11.9023C17.0963 11.9994 17.1081 12.1037 17.0939 12.2079L17.0963 12.2127Z" fill="#13E8D3"/>
<path d="M23.6506 11.7173V16.6958C23.6506 18.7739 21.9658 20.4562 19.8901 20.4562H15.7434C15.8666 19.3331 16.1747 18.2573 16.6581 17.2455C17.7054 15.0537 19.5086 13.3097 21.7336 12.3334C22.3521 12.0633 22.9919 11.8571 23.6506 11.7173Z" fill="#13E8D3"/>
<path d="M23.6506 3.76047V8.73889C22.9919 8.59909 22.3521 8.39531 21.7336 8.12518C19.5086 7.14893 17.7054 5.40257 16.6581 3.21074C16.1723 2.19894 15.8666 1.12317 15.7434 0H19.8901C21.9682 0 23.6506 1.68475 23.6506 3.76047Z" fill="#13E8D3"/>
<path d="M17.101 8.32422C17.101 8.40242 17.0868 8.47824 17.0607 8.54933C16.966 8.79576 16.7361 8.95452 16.4731 8.95689H5.28409C4.50214 8.52326 3.7818 7.99248 3.14202 7.3764C1.2061 5.51394 0 2.89796 0 0H13.196C13.3074 1.23927 13.5917 2.43826 14.049 3.57091C14.6817 5.14429 15.6153 6.56128 16.8238 7.78633C16.8333 7.79581 16.8475 7.81003 16.8712 7.82899L16.8783 7.83372C16.992 7.93088 17.0679 8.06594 17.0939 8.21285V8.22707L17.0987 8.24129C17.101 8.26972 17.1034 8.29579 17.1034 8.32185L17.101 8.32422Z" fill="#13E8D3"/>
</svg>
