<?xml version="1.0" encoding="UTF-8"?>
<svg id="Layer_1" data-name="Layer 1" xmlns="http://www.w3.org/2000/svg" viewBox="0 0 511.11 194.59">
  <defs>
    <style>
      .cls-1 {
        fill: #1edaa3;
      }

      .cls-2 {
        fill: #0f2e2c;
      }
    </style>
  </defs>
  <g>
    <path class="cls-2" d="M187.09,128.91l35.34-40.7v-.87h-34.1v-13.32h55.51v12.07l-35.22,40.2v.87h37.09v13.32h-58.62v-11.57Z"/>
    <path class="cls-2" d="M294.74,127.92h-.75c-4.23,9.33-9.71,14.44-22.65,14.44s-21.41-6.6-21.41-18.29v-3.36c0-10.7,8.34-18.54,24.02-18.54h20.41v-4.73c0-8.96-4.11-12.69-12.82-12.69-9.21,0-13.07,3.11-13.44,8.96l-.12,1.99h-15.56c.62-15.43,9.96-23.52,29.99-23.52,18.42,0,27.88,7.22,27.88,25.76v25.01c0,3.48,1.24,4.73,4.73,4.73h2.99v12.82c-2.61.5-5.23.87-9.33.87-8.71,0-13.94-3.61-13.94-13.44ZM276.2,129.78c12.2,0,18.17-3.48,18.17-15.43v-1.99h-18.92c-6.84,0-9.71,3.36-9.71,8.21v1.74c0,4.73,3.36,7.47,10.45,7.47Z"/>
    <path class="cls-2" d="M324.98,49.64h15.93v90.85h-15.93V49.64Z"/>
    <path class="cls-2" d="M350.36,108.75v-2.99c0-19.79,8.96-33.23,26.26-33.23,12.2,0,18.92,5.85,22.03,16.3h.87v-39.2h15.93v90.85h-15.93v-14.81h-.87c-3.11,10.45-9.83,16.3-22.03,16.3-17.3,0-26.26-13.44-26.26-33.23ZM382.84,127.79c12.32,0,16.68-4.98,16.68-17.17v-5.97c0-12.94-4.36-17.92-16.68-17.92-11.57,0-15.93,4.98-15.93,18.29v4.48c0,13.32,4.36,18.29,15.93,18.29Z"/>
    <path class="cls-2" d="M490.36,105.39v3.73c0,18.67-10.33,32.85-32.61,32.85s-32.73-14.19-32.73-32.85v-3.73c0-18.67,10.33-32.85,32.73-32.85s32.61,14.19,32.61,32.85ZM457.76,128.29c11.2,0,16.05-5.23,16.05-17.3v-7.47c0-12.07-4.85-17.3-16.05-17.3s-16.18,5.23-16.18,17.3v7.47c0,12.07,4.85,17.3,16.18,17.3Z"/>
  </g>
  <path class="cls-1" d="M95.5,30.15c-38.43,0-69.58,31.15-69.58,69.57s31.15,69.58,69.58,69.58,69.57-31.15,69.57-69.58S133.92,30.15,95.5,30.15ZM94.56,46.86c.35-3.13,3.17-5.38,6.3-5.04l5.81.65c3.13.35,5.38,3.16,5.04,6.29l-.93,8.41-17.15-1.89.93-8.42ZM97.15,150.08c-.34,3.13-3.16,5.38-6.29,5.04l-5.81-.65c-3.13-.34-5.39-3.16-5.04-6.29l.93-8.41,17.14,1.9-.93,8.41ZM131.43,70.88l-1.78,14.62c-.09,1.73-.77,3.23-2.05,4.5l-20.08,16.94,13.39,1.64c1.73.1,3.09.89,4.1,2.4,1,1.5,1.41,3.21,1.23,5.12l-2.05,17.35c-.19,1.91-.94,3.48-2.26,4.71-1.32,1.23-2.84,1.75-4.57,1.57l-52.33-6.01c-1.73-.09-3.12-.91-4.16-2.46-1.05-1.54-1.48-3.23-1.3-5.05l1.64-14.48c.27-2.01,1-3.51,2.18-4.51l20.09-17.08-12.44-1.5c-1.73-.18-3.09-1-4.09-2.46-1.01-1.46-1.42-3.1-1.23-4.92l2.04-17.62c.19-1.82.94-3.35,2.26-4.58s2.84-1.75,4.58-1.57l51.5,5.87c1.64.09,2.98.91,4.03,2.46,1.05,1.55,1.48,3.24,1.3,5.06Z"/>
</svg>