<?xml version="1.0" encoding="UTF-8"?>
<svg id="Layer_1" data-name="Layer 1" xmlns="http://www.w3.org/2000/svg" viewBox="0 0 421.52 103.66">
  <defs>
    <style>
      .cls-1 {
        fill: #13e8d3;
      }

      .cls-2 {
        fill: #494949;
      }
    </style>
  </defs>
  <path class="cls-1" d="M77.62,62.66v.06s-.02.06-.02.06c-.1.62-.43,1.19-.91,1.6l-.02.02c-.1.09-.17.15-.2.18-5.1,5.17-9.04,11.15-11.71,17.79-1.92,4.79-3.13,9.84-3.6,15.07H5.47c0-11.92,4.83-22.71,12.64-30.52.2-.2.41-.41.62-.61,2.7-2.6,5.74-4.84,9.04-6.67h47.21c.56,0,1.07.17,1.51.47.43.3.77.73.97,1.24.16.41.21.85.15,1.29Z"/>
  <path class="cls-1" d="M105.28,60.56v21.01c0,8.77-7.11,15.87-15.87,15.87h-17.5c.52-4.74,1.82-9.28,3.86-13.55,4.42-9.25,12.03-16.61,21.42-20.73,2.61-1.14,5.31-2.01,8.09-2.6Z"/>
  <path class="cls-1" d="M105.28,26.99v21.01c-2.78-.59-5.48-1.45-8.09-2.59-9.39-4.12-17-11.49-21.42-20.74-2.04-4.27-3.33-8.81-3.85-13.55h17.5c8.77,0,15.87,7.11,15.87,15.87Z"/>
  <path class="cls-1" d="M77.64,46.25c0,.33-.06.65-.17.95-.4,1.04-1.37,1.71-2.48,1.72H27.77c-3.3-1.83-6.34-4.07-9.04-6.67-8.17-7.85-13.26-18.9-13.26-31.13h55.69c.47,5.23,1.67,10.29,3.6,15.07,2.67,6.64,6.61,12.62,11.71,17.79.04.04.1.1.2.18l.03.02c.48.41.8.98.91,1.6v.06s.02.06.02.06c.01.12.02.23.02.34Z"/>
  <g>
    <path class="cls-2" d="M124.76,85.39l39.43-45.58h-38.12v-11.26h53.83v11.26l-39.43,45.58h39.43v11.26h-55.14v-11.26Z"/>
    <path class="cls-2" d="M184.88,78.84c0-13.1,9.56-18.47,21.74-19.91l16.9-1.96c6.29-.79,8.38-1.96,8.38-4.06v-1.83c0-10.87-5.63-13.75-15.19-13.75s-15.32,2.88-15.32,11.53v1.57h-12.71v-2.75c0-13.62,9.56-20.43,28.29-20.43s28.16,7.2,28.16,23.71v45.71h-12.44v-11h-.52c-1.31,2.62-7.73,12.31-24.49,12.31-12.71,0-22.79-5.63-22.79-19.12ZM210.95,87.62c14.41,0,20.96-8.91,20.96-16.24v-7.47c-.92,1.44-2.62,2.36-9.3,3.14l-12.84,1.7c-8.51,1.05-11.66,4.06-11.66,9.43,0,6.42,4.58,9.43,12.84,9.43Z"/>
    <path class="cls-2" d="M255.75,4.97h13.23v91.69h-13.23V4.97Z"/>
    <path class="cls-2" d="M276.44,62.6c0-24.76,15.19-35.36,30.39-35.36,10.09,0,18.73,4.58,22.79,12.05V4.97h13.23v91.69h-13.23v-10.74c-4.06,7.47-12.71,12.05-22.79,12.05-15.19,0-30.39-10.74-30.39-35.36ZM309.58,86.83c10.48,0,20.7-7.6,20.7-24.23s-10.22-24.23-20.7-24.23-20.56,7.6-20.56,24.23,9.95,24.23,20.56,24.23Z"/>
    <path class="cls-2" d="M350.32,62.6c0-24.36,16.24-35.36,33.14-35.36s33.27,11,33.27,35.36-16.24,35.36-33.27,35.36-33.14-11-33.14-35.36ZM383.46,86.83c11,0,20.69-7.47,20.69-24.23s-9.69-24.23-20.69-24.23-20.56,7.47-20.56,24.23,9.56,24.23,20.56,24.23Z"/>
  </g>
</svg>